# xmcd CD database file generated by OrangeCD 4.3
#
# Track frame offsets:
#	150
#	7528
#	35059
#	65077
#	88132
#	91002
#	115963
#	136920
#	157860
#	176082
#	186618
#	203326
#	224167
#	246019
#	262962
#
# Disc length: 3603 seconds
#
# Revision: 0
# Processed by: cddbd v1.4PL0 Copyright (c) Steve Scherf et al.
# Submitted via: OrangeCD 4.3
#
DISCID=cc0e110f
DTITLE=Mr. Capone-E - Dedicated 2 The Oldies
DYEAR=2003
DGENRE=
TTITLE0=Intro
TTITLE1=Look Over Your Shoulder
TTITLE2=Take A Chance
TTITLE3=Angel Baby 2003
TTITLE4=Skit
TTITLE5=Cant Be Stopped
TTITLE6=Hi Power Gangster
TTITLE7=Wanna Be Freaked
TTITLE8=Life we Live
TTITLE9=SouthSide Radio (skit)
TTITLE10=Ganster Lovin'
TTITLE11=I Ain't The One
TTITLE12=Never Be The Same Again
TTITLE13=You're The One For Me
TTITLE14=Outro
EXTD=
EXTT0=
EXTT1=
EXTT2=
EXTT3=
EXTT4=
EXTT5=
EXTT6=
EXTT7=
EXTT8=
EXTT9=
EXTT10=
EXTT11=
EXTT12=
EXTT13=
EXTT14=
PLAYORDER=
